<svg width="70" height="45" xmlns="http://www.w3.org/2000/svg"><path d="M11.11 5.465l-3.86-3.86-3.863 3.86 3.863 3.86 3.86-3.86zm58.199 25.09l-3.86-3.86-3.867 3.86 3.867 3.86 3.86-3.86zm-18.63-4.828c0 2.164-1.636 3.644-3.562 3.644-1.512 0-2.476-1.074-2.476-2.32 0-1.356.886-2.742 2.972-2.914l3.067-.278v1.868zM59 30.602c-1.543-.485-2.508-1.73-2.508-4.016v-7.461c0-5.063-3.785-7.668-9.094-7.668-2.726 0-5.468.688-7.261 1.855l1.09 4.63c1.543-1 3.8-1.653 5.875-1.653 2.52 0 3.578 1.074 3.578 2.555v.918l-4.45.437c-4.003.39-7.148 2.914-7.148 6.867 0 4.067 3.082 6.84 6.973 6.84 2.523 0 4.613-.84 5.562-2.82.485 1.617 1.977 2.676 3.301 2.973L59 30.602zm-29.055-4.114c-.773 1.172-2.289 2.367-4.527 2.367-3.258 0-5.684-2.539-5.684-6.043 0-3.484 2.426-6.023 5.684-6.023 2.352 0 3.879 1.14 4.527 1.977v7.722zm5.875 6.778V0h-5.875v13.05c-.82-.745-3.218-1.558-5.476-1.558-5.965 0-10.746 4.488-10.746 11.215 0 7.273 5.183 11.137 10.199 11.137 3.113 0 5.402-1.219 6.496-3.102h.043v2.524h5.36zM3.695 44.152L.082 40.551c2.629-.766 4.39-2.551 4.39-6.192V12.102h6.044v22.613c0 5.027-3.32 8.426-6.82 9.437z" fill="#2BBBF2"/></svg>