<svg xmlns="http://www.w3.org/2000/svg"  viewBox="0 0 64 64" width="64px" height="64px"><path fill="#0A5078" d="M58,52H6c-1.105,0-2-0.895-2-2V14c0-1.105,0.895-2,2-2h52c1.105,0,2,0.895,2,2v36 C60,51.105,59.105,52,58,52z"/><path fill="#F0F0F0" d="M54,48H10c-1.105,0-2-0.895-2-2V18c0-1.105,0.895-2,2-2h44c1.105,0,2,0.895,2,2v28 C56,47.105,55.105,48,54,48z"/><path fill="#D2D2D2" d="M54,16H10c-1.105,0-2,0.895-2,2v1c0-1.105,0.895-2,2-2h44c1.105,0,2,0.895,2,2v-1 C56,16.895,55.105,16,54,16z"/><path fill="#D2D2D2" d="M24,45c-0.552,0-1-0.447-1-1V20c0-0.553,0.448-1,1-1s1,0.447,1,1v24C25,44.553,24.552,45,24,45z"/><path fill="#D2D2D2" d="M40,45c-0.553,0-1-0.447-1-1V20c0-0.553,0.447-1,1-1s1,0.447,1,1v24C41,44.553,40.553,45,40,45z"/><path fill="#D2D2D2" d="M19,27h-6c-0.552,0-1,0.448-1,1v6c0,0.552,0.448,1,1,1h6c0.552,0,1-0.448,1-1v-6 C20,27.448,19.552,27,19,27z"/><path fill="#00A0C8" d="M19,34h-6c-0.552,0-1-0.448-1-1v-5h8v5C20,33.552,19.552,34,19,34z"/><path fill="#0082AA" d="M19,26h-6c-0.552,0-1,0.448-1,1v1h8v-1C20,26.448,19.552,26,19,26z"/><path fill="#D2D2D2" d="M19,37h-6c-0.552,0-1,0.448-1,1v6c0,0.552,0.448,1,1,1h6c0.552,0,1-0.448,1-1v-6 C20,37.448,19.552,37,19,37z"/><path fill="#00A0C8" d="M19,44h-6c-0.552,0-1-0.448-1-1v-5h8v5C20,43.552,19.552,44,19,44z"/><path fill="#0082AA" d="M19,36h-6c-0.552,0-1,0.448-1,1v1h8v-1C20,36.448,19.552,36,19,36z"/><path fill="#D2D2D2" d="M35,27h-6c-0.552,0-1,0.448-1,1v6c0,0.552,0.448,1,1,1h6c0.552,0,1-0.448,1-1v-6 C36,27.448,35.552,27,35,27z"/><path fill="#C80A50" d="M35,34h-6c-0.552,0-1-0.448-1-1v-5h8v5C36,33.552,35.552,34,35,34z"/><path fill="#A00028" d="M35,26h-6c-0.552,0-1,0.448-1,1v1h8v-1C36,26.448,35.552,26,35,26z"/><path fill="#D2D2D2" d="M35,37h-6c-0.552,0-1,0.448-1,1v6c0,0.552,0.448,1,1,1h6c0.552,0,1-0.448,1-1v-6 C36,37.448,35.552,37,35,37z"/><path fill="#C80A50" d="M35,44h-6c-0.552,0-1-0.448-1-1v-5h8v5C36,43.552,35.552,44,35,44z"/><path fill="#A00028" d="M35,36h-6c-0.552,0-1,0.448-1,1v1h8v-1C36,36.448,35.552,36,35,36z"/><path fill="#D2D2D2" d="M51,27h-6c-0.552,0-1,0.448-1,1v6c0,0.552,0.448,1,1,1h6c0.552,0,1-0.448,1-1v-6 C52,27.448,51.552,27,51,27z"/><path fill="#FAB400" d="M51,34h-6c-0.552,0-1-0.448-1-1v-5h8v5C52,33.552,51.552,34,51,34z"/><path fill="#DC9600" d="M51,26h-6c-0.552,0-1,0.448-1,1v1h8v-1C52,26.448,51.552,26,51,26z"/><g><path fill="#D2D2D2" d="M51,37h-6c-0.552,0-1,0.448-1,1v6c0,0.552,0.448,1,1,1h6c0.552,0,1-0.448,1-1v-6 C52,37.448,51.552,37,51,37z"/></g><g><path fill="#FAB400" d="M51,44h-6c-0.552,0-1-0.448-1-1v-5h8v5C52,43.552,51.552,44,51,44z"/><path fill="#DC9600" d="M51,36h-6c-0.552,0-1,0.448-1,1v1h8v-1C52,36.448,51.552,36,51,36z"/></g><g><path fill="#D2D2D2" d="M19,24h-6c-0.552,0-1-0.448-1-1v-2c0-0.552,0.448-1,1-1h6c0.552,0,1,0.448,1,1v2 C20,23.552,19.552,24,19,24z"/></g><g><path fill="#D2D2D2" d="M35,24h-6c-0.552,0-1-0.448-1-1v-2c0-0.552,0.448-1,1-1h6c0.552,0,1,0.448,1,1v2 C36,23.552,35.552,24,35,24z"/></g><g><path fill="#D2D2D2" d="M51,24h-6c-0.552,0-1-0.448-1-1v-2c0-0.552,0.448-1,1-1h6c0.552,0,1,0.448,1,1v2 C52,23.552,51.552,24,51,24z"/></g></svg>