<svg xmlns="http://www.w3.org/2000/svg"  viewBox="0 0 512 512" width="64px" height="64px"><defs><linearGradient id="GyruMb~0wNMMGUO3BTDlfa" x1="256" x2="256" y1="456" y2="59.324" gradientTransform="matrix(1 0 0 -1 0 514)" gradientUnits="userSpaceOnUse"><stop offset="0" stop-color="#00efd1"/><stop offset="1" stop-color="#00acea"/></linearGradient></defs><path fill="url(#GyruMb~0wNMMGUO3BTDlfa)" d="M463,48.039H370.375a10,10,0,0,0-10,10V85.7H287.922a50.057,50.057,0,0,0-50,50V244.617H141V198.031a10,10,0,0,0-10-10H49a10,10,0,0,0-10,10V313.969a10,10,0,0,0,10,10h82a10,10,0,0,0,10-10V264.617h96.922V376.305a50.057,50.057,0,0,0,50,50h72.453v27.656a10,10,0,0,0,10,10H463a10,10,0,0,0,10-10V378.649a10,10,0,0,0-10-10H370.375a10,10,0,0,0-10,10v27.656H287.922a30.034,30.034,0,0,1-30-30V264.617H360.375v27.656a10,10,0,0,0,10,10H463a10,10,0,0,0,10-10V216.961a10,10,0,0,0-10-10H370.375a10,10,0,0,0-10,10v27.656H257.922V135.7a30.034,30.034,0,0,1,30-30h72.453v27.656a10,10,0,0,0,10,10H463a10,10,0,0,0,10-10V58.039A10,10,0,0,0,463,48.039ZM121,303.969H59V208.031h62Zm259.375,84.679H453V443.96H380.375Zm0-161.687H453v55.312H380.375ZM453,123.352H380.375V68.039H453Z"/></svg>